Patient4_TMGait_0pt4_02_right_19_EMG.mot
version=1
nRows=39
nColumns=33
inDegrees=no
endheader
time	1LAddLong	2LGlutMax	3LGlutMed	4LIliopsoas	5LSemiMemb	6LBicFemLong	7LRecFem	8LVastMed	9LVastLat	10LGasMed	11LTibAnt	12lTibPost	13LPeroneusLong	14LSol	15LExtDigLong	16LFlexDigLong	17RAddLong	18RGlutMax	19RGlutMed	20RIliopsoas	21RSemiMemb	22RBicFemLong	23RRecFem	24RVastMed	25RVastLat	26RGasMed	27RTibAnt	28RTibPost	29RPeroneusLong	30RSol	31RExtDigLong	32RFlexDigLong
24.8	0.006561	-0.014038	0.055695	0.004272	0.017853	0.026093	-0.023193	0.006714	-0.081177	0.038757	0.11063	0.009918	0.002441	0.083618	0.044708	0.007477	0.018616	-0.17517	0.14343	0.10178	0.05188	0.036774	0.07019	-0.090332	0.009308	-0.010376	0.1236	-0.004272	-0.40604	-0.046387	-0.000916	0.004883
24.801	0.001678	0.031281	0.12482	0	0.010986	0.02243	-0.030365	0.011597	-0.072784	0.018616	0.46783	0.017395	-0.034943	0.21393	0.4454	0.011139	0.032501	-0.11887	0.26871	0.034943	0.036774	0.06897	0.061035	-0.083008	0.013123	-0.002289	-0.10239	-0.002594	-0.1622	-0.099335	-0.001068	0.003967
24.802	0.011444	0.009003	0.045013	-0.001526	0.018616	0.14053	-0.078583	0.007935	-0.046387	-0.039978	0.45883	0.020294	0.002899	0.31525	0.9549	0.011902	0.066223	-0.10696	0.53192	-0.059814	0.029602	0.062561	0.067749	-0.065002	0.026855	-0.004578	-0.3154	-0.001373	-0.065918	-0.050812	-0.000153	0.004425
24.803	0.007935	-0.037079	-0.079346	0.007935	0.013275	0.13077	-0.12131	0.028381	-0.037842	-0.045319	0.24262	0.014343	-0.036926	0.2359	0.099182	0.014343	0.04776	-0.073853	0.73303	-0.16876	0.020752	0.070801	0.11215	-0.099182	0.016632	-0.002899	-0.17548	0.007477	0.040436	-0.061951	-0.001068	-0.002441
24.804	0.009918	-0.072174	-0.11688	0.00473	0.01236	0.103	-0.023651	0.008698	-0.011902	-0.072174	-0.22018	0.016632	-0.0177	0.21194	-0.61172	0.001678	-0.00061	-0.073853	0.49911	-0.16174	0.019684	0.063477	0.078735	-0.074463	0.011444	-0.001678	-0.028839	0.000153	0.26093	-0.12802	0.001831	-0.009155
24.805	0.003204	-0.050964	0.057983	0.002899	0.008698	0.052948	0.058136	0.002441	0.04425	-0.057678	-0.47424	0.016632	0.10193	0.15152	-0.83313	0.004425	-0.042572	-0.033112	0.29327	-0.084991	0.007172	0.060577	0.10757	-0.096588	0.009155	-0.007324	0.050812	-0.002136	0.24231	-0.054169	0.001068	-0.005341
24.806	-0.001984	-0.035248	0.074768	0.009003	0.002441	-0.085907	0.025787	-0.009613	0.093536	-0.029297	-0.20187	0.014954	-0.009613	0.11765	-0.79071	-0.00946	-0.066986	-0.13184	0.26337	-0.016937	-0.001831	0.048523	0.088959	-0.092163	0.011597	-0.018768	0.17014	-0.002747	0.17899	0.016174	0.001373	-0.003967
24.807	-0.002899	-0.01358	0.048523	0.010529	0.017395	-0.13931	0.045929	-0.016327	0.10574	-0.014801	-0.057068	0.014648	0.03418	0.10178	-0.47455	-0.008087	-0.069275	-0.10162	-0.08316	0.035095	-0.004272	0.040131	0.054169	-0.10346	0.003967	-0.014648	0.27756	-0.002747	-0.001068	0.089111	0.002747	-0.017853
24.808	-0.002136	-0.036011	0.075836	0.015106	0.02182	-0.20889	0.040741	-0.016327	0.037842	-0.020599	-0.005798	0.014038	0.09903	0.10757	-0.43335	0.00061	-0.081635	-0.13825	-0.13718	0.043335	-0.012207	0.06958	0.046539	-0.057526	-0.004425	-0.013428	0.19592	-0.005035	0.010986	0.14542	0.000305	0.009155
24.809	-0.011139	-0.01358	0.04715	0.013123	0.017853	-0.19959	0.035858	-0.014496	0.015869	-0.016022	0.01297	0.0177	0.1091	0.006866	0.10803	-0.004578	-0.068817	-0.12573	-0.16266	0.063629	0.009613	0.071564	-0.003662	-0.070343	-0.001068	-0.010071	0.43015	0.001678	0.044098	0.035248	-0.000916	-0.000916
24.81	-0.007477	-0.019226	0.022736	0.0177	0.014801	-0.1503	0.033875	0.009308	-0.002594	-0.039215	-0.15839	0.01236	0.20676	0.038452	-0.074615	-0.014954	-0.059662	-0.13199	-0.17014	0.06958	0.006104	0.064392	-0.041046	-0.10651	0.001831	-0.011902	0.37964	-0.001678	-0.098114	0.019531	0.007019	-0.006104
24.811	-0.003204	-0.030823	0.01236	0.029602	-0.055084	-0.11627	0.022278	-0.004425	-0.0177	-0.061493	-0.14618	0.007935	0.1619	0.13275	-0.085602	-0.002289	-0.032349	-0.11734	0.049133	0.052032	-0.00824	0.046387	-0.085144	-0.10712	0.011292	-0.01358	0.17303	0.001068	-0.1857	-0.027008	-0.000916	-0.006561
24.812	-0.00412	-0.019531	0.006561	-0.004425	-0.052185	-0.036926	0.046539	-0.001373	-0.025635	-0.026245	-0.027924	0.013733	-0.018311	-0.001984	0.065613	-0.007782	-0.022125	-0.078125	0.30045	0.023804	-0.002441	0.046387	-0.12024	-0.074005	0.010223	-0.013275	-0.096741	-0.002594	0.026093	-0.085297	-0.003052	0.006256
24.813	0.009155	-0.037689	-0.03006	0.004578	-0.002289	-0.018921	0.01297	0.005493	-0.023956	0.005341	0.032654	0.015564	-0.066833	-0.016937	0.089569	-0.006561	-0.009918	-0.048981	0.33081	0.014648	-0.016022	0.059052	-0.049744	-0.078735	0.010376	-0.015259	-0.34439	-0.001221	0.097504	-0.053101	-0.001068	-0.00061
24.814	0.005035	-0.046082	-0.032806	0.015869	0.05249	0.000305	0.005035	0.000916	0.0177	0.006409	0.03006	0.012665	-0.11673	-0.049591	0.055695	-0.003357	-0.003967	-0.1001	-0.14267	0.054016	-0.018311	0.060425	-0.054169	-0.11612	0.013733	-0.016327	-0.32013	-0.003815	0.061188	-0.015259	-0.002747	0.001831
24.815	0.009308	-0.034027	0.028839	0.020905	0.061646	0.018005	0.00412	0.005341	0.10483	-0.0383	-0.045013	0.018616	-0.083466	-0.1535	0.36499	-0.001678	0.007324	-0.005798	0.08667	0.007172	-0.022278	0.056152	-0.040588	-0.1004	0.008392	-0.006104	-0.071259	-0.003052	-0.019226	-0.10178	-0.000763	0.000763
24.816	0.015106	-0.027466	0.076294	0.016327	0.057983	0.058441	0.023041	-0.007935	0.09964	-0.021973	-0.024109	0.018768	-0.2861	-0.094452	0.13458	-0.001831	0.009613	-0.056152	0.55847	-0.063324	-0.017242	0.04425	-0.00412	-0.059967	0.032196	-0.007477	0.025635	-0.000305	-0.17944	-0.13916	-0.002441	0.001984
24.817	0.007172	-0.016327	0.082245	-0.000916	0.019379	0.13504	-0.015106	-0.000916	0.023651	-0.003967	-0.00824	0.010681	-0.24094	-0.06424	0.075836	-0.006561	0.014954	-0.02243	0.51025	-0.11551	-0.029907	0.046692	-0.013733	-0.057678	0.008087	0	0.057678	-0.002594	-0.24979	-0.067139	0.000305	-0.003662
24.818	0.009003	-0.009766	0.052948	-0.022888	0.000763	0.15579	0.009613	-0.004272	-0.027008	-0.002136	0.072479	0.016785	-0.29587	-0.045624	0.052795	0.000458	0.016632	-0.019073	0.12283	-0.099945	-0.021667	0.059509	-0.042572	-0.11505	0.013885	-0.012207	0.067902	-0.007019	-0.28229	-0.043945	-0.001678	-0.010986
24.819	0.018158	-0.031281	0.067444	0.004272	0.052032	0.053711	0.017395	0.007629	-0.042877	-0.005646	0.017853	0.00824	-0.036926	-0.046997	0.19531	-0.00824	0.010834	0.035706	0.10971	-0.061646	-0.019073	0.057068	-0.1178	-0.13229	0.011444	-0.019989	0.20981	-0.002899	-0.14847	0.006866	-0.001678	-0.011749
24.82	0.019226	-0.034332	0.048981	0.022278	0.071411	-0.041046	0.015869	0.013428	-0.047607	0.00061	0.002289	0.010071	0.31677	-0.010071	0.28229	-0.003662	0.017242	-0.042572	0.13153	0.03479	-0.021362	0.045776	-0.093231	-0.10849	0.024719	-0.016479	0.1857	-0.002136	0.036011	0.031891	0.001526	-0.0177
24.821	0.022736	-0.029144	0.051575	-0.003662	0.072174	-0.007019	-0.015869	0.00824	-0.057068	0.006256	0.005646	0.007172	0.74631	-0.030975	0.16983	0.006714	0.014801	-0.066681	0.097809	0.11856	-0.028534	0.067596	-0.14938	-0.087738	0.001526	-0.023804	-0.1088	-0.003204	0.1004	0.007172	0.00351	-0.002441
24.822	0.018005	-0.005951	0.097961	0.014343	0.038605	-0.009766	-0.018768	0.009613	0.046387	-0.035706	-0.020905	0.011139	0.34378	0.061951	0.094757	-0.000763	0.004425	-0.035248	0.2153	0.069122	-0.016937	0.074768	-0.074615	-0.13504	0.010529	-0.013123	-0.14343	-0.009766	0.088196	-0.045471	-0.00061	-0.012207
24.823	0.013123	-0.044708	0.057526	0.01297	0.022736	0.006561	-0.002899	-0.002136	0.10803	-0.04715	0.024567	0.018158	-0.43823	0.13596	0.13809	0.007019	0.002899	-0.031586	0.38101	-0.018158	-0.015717	0.093994	-0.052795	-0.10727	0.002441	-0.015106	-0.070648	-0.001221	-0.016785	-0.033722	0.001221	-0.010986
24.824	0.012665	-0.039063	-0.024414	0.00824	0.006561	0.018158	0.059509	-0.011292	0.0354	-0.033569	0.046234	0.014343	-0.625	0.10086	0.073395	0.005035	0.011749	-0.044708	0.55985	-0.001068	-0.007324	0.076904	-0.059662	-0.095367	0.013428	-0.016022	0.00061	-0.001678	-0.03006	0.071259	-0.002136	-0.008545
24.825	0.014343	-0.046692	-0.084381	0.006104	-0.00885	0.012665	0.019531	0.001373	0.02533	-0.05127	0.043945	0.01236	-0.25696	0.056	-0.044403	-0.001373	0.011292	-0.00946	0.16663	0.074921	-0.009155	0.095673	-0.052948	-0.063019	0.009155	-0.018005	-0.021057	-0.002289	0.04425	0.11078	-0.000916	-0.01358
24.826	0.010223	-0.023041	-0.013885	0.012054	0.010986	-0.006561	0.015411	0.007629	0.041504	0.016022	0.02594	0.007629	0.088501	0.028992	-0.034637	0.006256	0.01358	-0.012512	0.009918	0.075226	0.002899	0.09613	0.065613	-0.047455	0.005035	-0.00946	-0.11963	-0.001526	0.065613	0.10162	0.001068	-0.004578
24.827	0.005646	0.012665	0.14496	0.010223	0.02594	-0.005341	-0.012207	0.009918	-0.003815	0.040588	0.022736	0.011902	0.30609	-0.04776	-0.06424	-0.007629	0.029297	0.023193	-0.056305	0.008545	-0.014648	0.093231	0.10849	-0.016785	0.011597	-0.006104	-0.078583	-0.003662	0.057526	0.047913	-0.00061	-0.011139
24.828	0.00061	-0.056	0.075989	0.007324	0.032654	0.019531	-0.005798	0.017548	-0.007172	0.02533	-0.007935	0.006714	0.30029	-0.026855	-0.014191	0.007019	0.023346	-0.041046	0.02121	-0.099945	-0.012817	0.091095	0.074005	-0.003967	0.02121	-0.012512	-0.005341	-0.00061	-0.063934	0.042419	0.002747	-0.002136
24.829	0.001526	-0.061493	0.041656	0.009918	0.016022	0.017242	-0.052338	0.010071	0.010376	0.001526	0.001221	0.012817	-0.20615	-0.054626	0.040283	0.000916	0.015717	-0.025787	0.095367	-0.17471	-0.020752	0.07309	0.052338	-0.025482	0.016327	-0.005188	0.37766	-0.003204	-0.13214	0.020294	-0.003052	0.001373
24.83	0.006561	-0.043488	0.033722	0.01236	0.009155	0.015411	-0.11917	0.006866	-0.015564	0.008545	0.014038	0.010223	-0.4274	-0.071106	-0.04425	0.003815	0.028076	-0.015717	0.074463	-0.13168	-0.021667	0.10269	-0.029755	-0.052032	0.003357	-0.014191	0.4007	-0.001068	-0.18601	0.007172	-0.001526	0.007782
24.831	-0.002289	-0.024872	0.061798	0.030212	0.001984	0.004883	-0.025787	-0.004425	0.043335	-0.000916	-0.033569	0.013428	-0.28351	-0.019531	0.05188	0.010223	0.033722	0.001221	-0.063934	-0.012512	-0.027466	0.084229	-0.11475	-0.12268	0.009918	-0.014648	0.40924	0.004272	0.168	-0.034332	-0.002899	0.000153
24.832	0.001526	0.020905	0.23972	0.033112	0.004578	-0.003204	0.048523	-0.019836	0.065002	-0.005798	-0.037079	0.003052	0.023041	0.15549	-0.14847	0.000305	0.024719	-0.015869	-0.14313	0.040131	-0.016785	0.081482	-0.03479	-0.13519	0.023499	-0.008087	0.40115	0.00473	0.70709	-0.053406	0.003967	0
24.833	-0.00824	-0.026093	0.19989	0.007324	0.018921	-0.020905	0.08667	-0.0177	-0.032196	-0.003357	-0.038757	0.009613	-0.10498	0.27145	0.13931	-0.002594	0.021973	-0.025787	-0.037079	0.24933	-0.022278	0.07431	-0.064087	-0.10819	0.018921	0.002441	0.065308	0.003357	0.68787	-0.053101	-0.002441	0.002747
24.834	-0.000763	-0.073395	0.051727	-0.00946	0.024872	0.025635	0.065002	-0.003357	-0.053864	-0.012207	-0.019226	0.014191	0.26596	0.20706	0.13046	0.007172	0.019836	-0.022125	0.073547	0.26535	-0.011902	0.086975	0.000458	-0.089569	0.016022	0.00473	-0.76614	-0.000763	0.10956	-0.052795	-0.002136	0.001526
24.835	-0.003662	-0.066223	-0.012207	0.001678	0.013885	0.010834	0.039673	0.007172	0.070648	-0.018616	0.10727	0.007172	0.29511	0.15808	0.12817	0.017242	0.009003	-0.032196	0.020905	0.11231	-0.011444	0.099792	0.007935	-0.11185	0.010681	-0.004272	-0.46616	0.001068	-0.65033	-0.003052	-0.002441	0.001831
24.836	-0.001831	-0.054779	-0.015717	0.012207	0.005035	0.02243	-0.003052	-0.004578	0.016174	-0.032349	0.1358	0.009308	-0.17059	0.092926	0.13382	0.010223	0.014343	-0.055084	-0.044098	0.032349	0.005798	0.10254	-0.026855	-0.083008	0.016174	0	-0.27084	-0.003967	-0.78537	-0.029755	-0.001221	0.002594
24.837	-0.006409	-0.064545	-0.065613	0.006714	0.010071	0.047913	-0.021973	-0.009155	-0.087738	-0.020599	0.16464	0.010986	-0.17014	0.1152	-0.11841	0.009003	0.003357	-0.049438	-0.1181	-0.036469	0.002136	0.10086	-0.010071	-0.11505	0.018616	-0.002441	-0.15091	-0.001221	0.024567	-0.024261	-0.000763	0.005951
24.838	-0.002899	-0.03891	-0.12726	0.009155	0.00473	0.083008	-0.026093	-0.005341	-0.091248	-0.088043	0.09613	0.018311	-0.28305	0.053558	-0.12863	0.012054	0.014343	-0.042572	-0.10254	-0.047455	0.00473	0.077515	-0.037079	-0.081024	0.004578	-0.013885	0.028687	0.000458	0.35065	0.008392	0.000916	0.00061
